<svg xmlns="http://www.w3.org/2000/svg" viewBox="0 0 1290.38 601.31" width="1258.38" height="569.31" fill="transparent"><defs><style>@import url('https://fonts.googleapis.com/css2?family=Caveat+Brush&amp;family=Source+Code+Pro&amp;family=Source+Sans+Pro&amp;family=Source+Serif+Pro&amp;display=swap');</style></defs><g><g id="e79d0872-2754-4ee2-27c8-dde9f95181a0_svg" class="tl-centered-g" transform="translate(16, 80) rotate(0, 135.72, 64.29)"><path d="M -0.04,38.31 Q -0.04,38.31 -0.16,32.00 -0.28,25.69 -0.40,17.75 -0.52,9.81 1.34,5.76 3.21,1.71 10.40,0.63 17.58,-0.44 25.89,-0.60 34.19,-0.76 42.78,-0.75 51.36,-0.73 60.03,-0.67 68.69,-0.61 77.37,-0.54 86.06,-0.47 94.74,-0.40 103.43,-0.33 112.12,-0.25 120.81,-0.18 129.50,-0.15 138.19,-0.11 146.88,-0.13 155.57,-0.14 164.26,-0.15 172.95,-0.16 181.65,-0.18 190.34,-0.19 199.03,-0.20 207.72,-0.21 216.41,-0.22 225.10,-0.24 233.79,-0.25 242.48,-0.26 251.19,-0.27 259.90,-0.28 264.14,1.58 268.38,3.45 269.56,10.43 270.74,17.41 270.98,25.45 271.22,33.48 271.28,41.78 271.34,50.08 271.45,58.46 271.55,66.83 271.74,75.22 271.93,83.62 272.11,92.01 272.30,100.41 272.48,108.83 272.66,117.26 270.81,121.44 268.95,125.62 261.75,126.75 254.56,127.89 246.23,128.09 237.90,128.29 229.29,128.30 220.67,128.32 211.98,128.29 203.29,128.26 194.58,128.22 185.87,128.18 177.16,128.14 168.44,128.10 159.73,128.05 151.01,128.01 142.29,128.01 133.58,128.01 124.86,128.05 116.14,128.09 107.43,128.14 98.71,128.18 89.99,128.22 81.28,128.26 72.56,128.31 63.84,128.35 55.13,128.39 46.41,128.43 37.69,128.48 28.97,128.52 20.24,128.56 11.50,128.60 7.25,126.73 2.99,124.86 1.86,117.84 0.72,110.81 0.53,102.72 0.35,94.62 0.34,86.26 0.34,77.89 0.29,69.45 0.24,61.01 0.11,52.56 -0.01,44.10 -0.15,32.74 -0.29,21.38 -0.26,21.14 -0.22,20.91 -0.11,20.70 -0.00,20.49 0.16,20.33 0.33,20.16 0.55,20.06 0.76,19.96 1.00,19.94 1.23,19.91 1.46,19.96 1.70,20.01 1.90,20.13 2.10,20.25 2.26,20.43 2.41,20.61 2.50,20.83 2.59,21.05 2.60,21.29 2.62,21.52 2.55,21.75 2.49,21.98 2.36,22.18 2.23,22.37 2.04,22.52 1.85,22.66 1.63,22.74 1.40,22.82 1.17,22.82 0.93,22.82 0.70,22.74 0.48,22.67 0.29,22.53 0.10,22.38 -0.02,22.19 -0.16,21.99 -0.22,21.76 -0.28,21.54 -0.27,21.30 -0.26,21.06 -0.17,20.84 -0.09,20.62 0.06,20.44 0.21,20.26 0.41,20.14 0.61,20.01 0.84,19.96 1.08,19.91 1.31,19.93 1.55,19.96 1.76,20.06 1.98,20.16 2.15,20.32 2.32,20.48 2.43,20.69 2.55,20.90 2.59,21.13 2.62,21.37 2.62,21.37 2.62,21.37 2.58,32.73 2.53,44.09 2.48,52.54 2.43,61.00 2.48,69.43 2.53,77.87 2.71,86.20 2.90,94.53 3.26,102.46 3.62,110.39 4.43,116.74 5.24,123.09 8.41,124.20 11.59,125.31 20.28,125.35 28.98,125.39 37.69,125.44 46.41,125.48 55.13,125.52 63.84,125.57 72.56,125.61 81.28,125.66 89.99,125.70 98.71,125.74 107.43,125.79 116.14,125.83 124.86,125.88 133.58,125.92 142.29,125.92 151.01,125.92 159.73,125.88 168.44,125.84 177.16,125.79 185.87,125.75 194.58,125.70 203.29,125.66 211.97,125.60 220.65,125.54 229.23,125.44 237.81,125.33 245.98,125.06 254.14,124.79 260.68,124.07 267.22,123.36 268.30,120.27 269.38,117.19 269.37,108.82 269.37,100.44 269.37,92.04 269.37,83.64 269.37,75.25 269.37,66.86 269.26,58.49 269.15,50.12 268.91,41.85 268.67,33.59 268.26,25.72 267.85,17.85 267.00,11.55 266.15,5.25 262.98,4.12 259.81,3.00 251.14,2.93 242.47,2.86 233.78,2.78 225.09,2.71 216.40,2.63 207.71,2.56 199.02,2.48 190.33,2.41 181.64,2.33 172.95,2.26 164.26,2.19 155.57,2.11 146.88,2.04 138.19,1.96 129.49,1.93 120.80,1.90 112.11,1.91 103.42,1.92 94.74,1.94 86.05,1.95 77.37,1.97 68.68,1.98 60.03,2.01 51.37,2.04 42.82,2.11 34.26,2.18 26.12,2.41 17.98,2.65 11.46,3.32 4.94,3.98 3.85,6.94 2.75,9.90 2.70,17.79 2.64,25.68 2.57,31.99 2.51,38.30 2.49,38.45 2.47,38.60 2.42,38.75 2.36,38.89 2.28,39.02 2.19,39.15 2.07,39.25 1.96,39.35 1.82,39.42 1.69,39.50 1.54,39.53 1.39,39.57 1.23,39.57 1.08,39.57 0.93,39.54 0.78,39.50 0.64,39.43 0.51,39.36 0.39,39.26 0.28,39.15 0.19,39.03 0.10,38.90 0.04,38.76 -0.00,38.61 -0.02,38.46 Z" fill="#1d1d1d" stroke="#1d1d1d" stroke-width="2" pointer-events="none"/></g><g fill="#1d1d1d" transform="translate(88, 120) rotate(0, 57, 20.5)"><text font-family="&quot;Caveat Brush&quot;" font-size="28px" text-anchor="middle" alignment-baseline="central" text-align="center" y="18.2" x="57">Frontend</text></g></g><g><g id="f4800155-95d6-4d35-289b-00a5ee58873a_svg" class="tl-centered-g" transform="translate(575.8199999999999, 76.16) rotate(0, 135.72, 64.29)"><path d="M 271.67,89.91 Q 271.67,89.91 271.79,96.22 271.90,102.53 272.02,110.48 272.14,118.43 270.28,122.49 268.41,126.54 261.20,127.64 254.00,128.73 245.67,128.91 237.35,129.09 228.74,129.09 220.13,129.09 211.44,129.05 202.76,129.01 194.05,128.96 185.34,128.90 176.63,128.85 167.92,128.79 159.21,128.74 150.49,128.68 141.78,128.67 133.06,128.65 124.35,128.69 115.64,128.72 106.92,128.75 98.21,128.78 89.49,128.81 80.78,128.84 72.07,128.87 63.35,128.90 54.64,128.93 45.92,128.96 37.21,128.99 28.49,129.02 19.76,129.04 11.02,129.07 6.77,127.20 2.52,125.33 1.40,118.32 0.28,111.32 0.11,103.26 -0.05,95.20 -0.04,86.86 -0.02,78.53 -0.05,70.13 -0.09,61.72 -0.20,53.29 -0.31,44.87 -0.42,36.44 -0.53,28.01 -0.64,19.55 -0.74,11.10 1.12,6.92 2.99,2.73 10.19,1.59 17.38,0.45 25.70,0.24 34.02,0.03 42.62,0.01 51.23,-0.01 59.90,0.01 68.58,0.03 77.28,0.06 85.98,0.09 94.68,0.13 103.39,0.16 112.09,0.20 120.80,0.23 129.50,0.23 138.21,0.22 146.92,0.17 155.62,0.12 164.33,0.07 173.03,0.02 181.74,-0.02 190.44,-0.08 199.15,-0.13 207.85,-0.18 216.56,-0.23 225.27,-0.28 233.97,-0.33 242.68,-0.38 251.41,-0.42 260.13,-0.47 264.38,1.38 268.63,3.25 269.77,10.28 270.90,17.31 271.09,25.42 271.28,33.52 271.28,41.90 271.28,50.27 271.33,58.72 271.38,67.17 271.51,75.64 271.64,84.11 271.78,95.48 271.92,106.86 271.88,107.09 271.85,107.32 271.74,107.53 271.63,107.74 271.46,107.91 271.28,108.07 271.07,108.17 270.85,108.27 270.62,108.30 270.38,108.32 270.15,108.27 269.92,108.22 269.72,108.10 269.51,107.98 269.36,107.80 269.21,107.62 269.12,107.40 269.03,107.18 269.01,106.95 269.00,106.71 269.06,106.48 269.13,106.25 269.26,106.06 269.39,105.86 269.58,105.71 269.77,105.57 269.99,105.49 270.21,105.42 270.45,105.42 270.69,105.42 270.91,105.49 271.14,105.57 271.33,105.71 271.52,105.85 271.65,106.05 271.78,106.24 271.85,106.47 271.91,106.70 271.90,106.93 271.89,107.17 271.80,107.39 271.71,107.61 271.56,107.79 271.41,107.97 271.21,108.10 271.00,108.22 270.77,108.27 270.54,108.32 270.31,108.30 270.07,108.27 269.86,108.18 269.64,108.08 269.47,107.91 269.29,107.75 269.18,107.54 269.07,107.33 269.03,107.10 268.99,106.87 268.99,106.87 268.99,106.87 269.04,95.49 269.08,84.12 269.14,75.65 269.19,67.18 269.15,58.74 269.10,50.30 268.91,41.95 268.72,33.61 268.36,25.67 268.00,17.73 267.20,11.38 266.39,5.02 263.22,3.91 260.05,2.80 251.36,2.77 242.68,2.74 233.97,2.70 225.27,2.67 216.56,2.63 207.86,2.59 199.15,2.56 190.45,2.52 181.74,2.49 173.03,2.45 164.33,2.41 155.62,2.38 146.92,2.34 138.21,2.30 129.51,2.31 120.80,2.32 112.10,2.37 103.39,2.42 94.69,2.47 85.98,2.52 77.29,2.58 68.59,2.63 59.92,2.70 51.25,2.76 42.68,2.88 34.11,2.99 25.95,3.27 17.80,3.55 11.27,4.27 4.74,4.99 3.63,8.09 2.53,11.19 2.46,19.60 2.39,28.00 2.31,36.43 2.24,44.86 2.16,53.29 2.09,61.71 2.12,70.11 2.15,78.51 2.32,86.81 2.49,95.11 2.84,103.01 3.18,110.91 3.97,117.23 4.77,123.56 7.94,124.67 11.12,125.79 19.81,125.84 28.50,125.89 37.21,125.95 45.93,126.00 54.64,126.06 63.36,126.12 72.07,126.17 80.78,126.23 89.50,126.29 98.21,126.34 106.93,126.40 115.64,126.46 124.35,126.51 133.07,126.57 141.78,126.58 150.49,126.59 159.21,126.56 167.92,126.53 176.63,126.50 185.35,126.47 194.05,126.44 202.76,126.40 211.44,126.36 220.12,126.31 228.70,126.22 237.27,126.14 245.44,125.88 253.60,125.63 260.14,124.95 266.67,124.27 267.77,121.31 268.86,118.34 268.92,110.44 268.98,102.54 269.04,96.23 269.11,89.92 269.13,89.76 269.15,89.61 269.20,89.47 269.25,89.32 269.34,89.19 269.43,89.07 269.54,88.96 269.66,88.86 269.79,88.79 269.93,88.72 270.08,88.68 270.23,88.64 270.38,88.64 270.54,88.64 270.69,88.68 270.84,88.71 270.97,88.78 271.11,88.86 271.23,88.96 271.34,89.06 271.43,89.19 271.52,89.31 271.57,89.46 271.63,89.60 271.65,89.75 Z" fill="#1d1d1d" stroke="#1d1d1d" stroke-width="2" pointer-events="none"/></g><g fill="#1d1d1d" transform="translate(679.45, 122.10) rotate(0, 26, 20.5)"><text font-family="&quot;Caveat Brush&quot;" font-size="28px" text-anchor="middle" alignment-baseline="central" text-align="center" y="18.2" x="26">API</text></g></g><g><g id="3632b282-ca99-40f4-006e-725fb9b1247a_svg" class="tl-centered-g" transform="translate(247.66999999999996, 456.73) rotate(0, 135.72, 64.29)"><path d="M 272.25,89.56 Q 272.25,89.56 272.37,95.92 272.50,102.27 272.62,110.27 272.75,118.27 270.88,122.34 269.02,126.41 261.81,127.51 254.59,128.61 246.25,128.80 237.92,128.98 229.29,128.99 220.67,129.00 211.97,128.97 203.27,128.93 194.55,128.89 185.83,128.84 177.11,128.79 168.38,128.75 159.65,128.70 150.93,128.65 142.20,128.64 133.47,128.64 124.74,128.67 116.02,128.71 107.29,128.75 98.56,128.78 89.83,128.82 81.11,128.86 72.38,128.90 63.65,128.93 54.92,128.97 46.20,129.01 37.47,129.05 28.74,129.08 19.99,129.12 11.24,129.15 6.99,127.28 2.73,125.41 1.62,118.37 0.51,111.34 0.35,103.23 0.19,95.12 0.21,86.74 0.24,78.37 0.22,69.92 0.20,61.46 0.10,52.99 0.00,44.52 -0.09,36.04 -0.19,27.57 -0.28,19.07 -0.38,10.56 1.48,6.37 3.36,2.18 10.56,1.02 17.76,-0.12 26.08,-0.34 34.41,-0.56 43.01,-0.59 51.62,-0.63 60.30,-0.61 68.99,-0.60 77.69,-0.58 86.39,-0.56 95.10,-0.54 103.81,-0.51 112.52,-0.49 121.23,-0.46 129.94,-0.48 138.65,-0.50 147.36,-0.56 156.07,-0.62 164.78,-0.68 173.49,-0.74 182.20,-0.80 190.92,-0.86 199.63,-0.92 208.34,-0.98 217.05,-1.04 225.76,-1.10 234.47,-1.17 243.18,-1.23 251.91,-1.28 260.64,-1.34 264.89,0.51 269.15,2.38 270.29,9.45 271.43,16.52 271.62,24.67 271.81,32.83 271.82,41.25 271.83,49.68 271.89,58.18 271.94,66.69 272.08,75.21 272.22,83.73 272.37,95.17 272.52,106.62 272.48,106.85 272.44,107.09 272.33,107.30 272.22,107.51 272.05,107.67 271.88,107.83 271.67,107.93 271.45,108.04 271.22,108.06 270.98,108.09 270.75,108.04 270.52,107.99 270.31,107.87 270.11,107.75 269.96,107.57 269.80,107.39 269.71,107.17 269.63,106.95 269.61,106.71 269.60,106.47 269.66,106.25 269.72,106.02 269.85,105.82 269.99,105.62 270.17,105.48 270.36,105.34 270.59,105.26 270.81,105.18 271.05,105.18 271.28,105.18 271.51,105.25 271.73,105.33 271.92,105.47 272.11,105.61 272.25,105.81 272.38,106.01 272.44,106.23 272.51,106.46 272.50,106.70 272.49,106.93 272.40,107.15 272.31,107.38 272.16,107.56 272.01,107.74 271.80,107.86 271.60,107.98 271.37,108.04 271.14,108.09 270.90,108.06 270.67,108.04 270.45,107.94 270.24,107.84 270.07,107.68 269.89,107.52 269.78,107.31 269.67,107.10 269.63,106.87 269.59,106.63 269.59,106.63 269.59,106.63 269.63,95.19 269.66,83.74 269.71,75.22 269.76,66.70 269.70,58.20 269.65,49.71 269.45,41.31 269.26,32.91 268.89,24.93 268.53,16.94 267.71,10.54 266.90,4.15 263.73,3.04 260.56,1.93 251.87,1.91 243.18,1.89 234.47,1.86 225.76,1.84 217.05,1.81 208.34,1.79 199.63,1.76 190.92,1.74 182.21,1.71 173.50,1.68 164.79,1.66 156.08,1.63 147.37,1.61 138.66,1.58 129.95,1.60 121.24,1.62 112.53,1.68 103.82,1.74 95.11,1.80 86.40,1.86 77.70,1.93 69.00,1.99 60.32,2.07 51.65,2.14 43.07,2.27 34.50,2.39 26.34,2.68 18.18,2.97 11.65,3.70 5.11,4.44 4.00,7.55 2.90,10.66 2.81,19.11 2.73,27.57 2.64,36.04 2.55,44.52 2.47,52.99 2.39,61.46 2.41,69.90 2.43,78.35 2.58,86.70 2.74,95.04 3.07,102.99 3.41,110.93 4.19,117.29 4.98,123.64 8.16,124.76 11.33,125.87 20.04,125.91 28.74,125.96 37.47,126.01 46.20,126.06 54.93,126.10 63.65,126.15 72.38,126.20 81.11,126.25 89.84,126.30 98.56,126.35 107.29,126.40 116.02,126.45 124.75,126.50 133.47,126.55 142.20,126.55 150.93,126.56 159.65,126.52 168.38,126.49 177.11,126.45 185.83,126.41 194.55,126.37 203.27,126.33 211.96,126.27 220.66,126.22 229.25,126.13 237.84,126.03 246.01,125.77 254.19,125.51 260.73,124.82 267.28,124.14 268.37,121.16 269.47,118.18 269.52,110.23 269.57,102.28 269.63,95.93 269.69,89.57 269.71,89.42 269.73,89.27 269.78,89.12 269.84,88.98 269.92,88.85 270.01,88.73 270.13,88.62 270.24,88.52 270.38,88.45 270.51,88.38 270.66,88.34 270.81,88.30 270.97,88.30 271.12,88.30 271.27,88.33 271.42,88.37 271.56,88.44 271.69,88.51 271.81,88.61 271.93,88.72 272.01,88.84 272.10,88.97 272.16,89.11 272.21,89.26 272.23,89.41 Z" fill="#1d1d1d" stroke="#1d1d1d" stroke-width="2" pointer-events="none"/></g><g fill="#1d1d1d" transform="translate(330.79999999999995, 502.65) rotate(0, 46.5, 20.5)"><text font-family="&quot;Caveat Brush&quot;" font-size="28px" text-anchor="middle" alignment-baseline="central" text-align="center" y="18.2" x="46.5">Agent 1</text></g></g><g><g id="4fc98219-e65d-4dc3-1b46-d3f3b1f1e49e_svg" class="tl-centered-g" transform="translate(587.71, 454.82) rotate(0, 135.72, 64.29)"><path d="M 272.05,89.59 Q 272.05,89.59 272.12,95.91 272.20,102.23 272.26,110.19 272.33,118.15 270.45,122.20 268.57,126.25 261.35,127.38 254.12,128.50 245.78,128.72 237.44,128.93 228.81,128.97 220.18,129.01 211.47,129.01 202.77,129.01 194.04,128.99 185.31,128.98 176.58,128.96 167.85,128.95 159.12,128.93 150.38,128.91 141.65,128.94 132.92,128.96 124.18,129.03 115.45,129.10 106.72,129.17 97.98,129.24 89.25,129.31 80.52,129.38 71.78,129.45 63.05,129.52 54.32,129.59 45.58,129.66 36.85,129.72 28.12,129.79 19.36,129.86 10.61,129.92 6.35,128.06 2.08,126.19 0.98,119.10 -0.11,112.01 -0.26,103.84 -0.41,95.66 -0.37,87.21 -0.34,78.76 -0.35,70.23 -0.35,61.70 -0.44,53.16 -0.53,44.61 -0.62,36.06 -0.71,27.50 -0.79,18.93 -0.87,10.35 0.99,6.14 2.87,1.92 10.10,0.78 17.32,-0.35 25.67,-0.54 34.03,-0.74 42.67,-0.75 51.31,-0.76 60.02,-0.73 68.74,-0.69 77.47,-0.65 86.21,-0.60 94.95,-0.55 103.69,-0.50 112.43,-0.45 121.17,-0.40 129.91,-0.40 138.65,-0.39 147.40,-0.43 156.14,-0.46 164.88,-0.50 173.62,-0.54 182.36,-0.57 191.11,-0.61 199.85,-0.65 208.59,-0.69 217.33,-0.72 226.07,-0.76 234.82,-0.80 243.56,-0.83 252.32,-0.86 261.09,-0.90 265.35,0.97 269.61,2.84 270.70,9.88 271.79,16.92 271.92,25.03 272.05,33.15 272.00,41.53 271.94,49.91 271.93,58.37 271.92,66.83 271.99,75.31 272.06,83.79 272.13,95.17 272.19,106.56 272.15,106.79 272.11,107.03 272.00,107.24 271.88,107.45 271.71,107.61 271.54,107.77 271.32,107.87 271.11,107.97 270.87,107.99 270.64,108.02 270.41,107.97 270.17,107.92 269.97,107.79 269.77,107.67 269.62,107.49 269.46,107.31 269.38,107.09 269.29,106.87 269.28,106.63 269.27,106.39 269.33,106.17 269.39,105.94 269.53,105.74 269.66,105.55 269.85,105.40 270.04,105.26 270.26,105.19 270.49,105.11 270.73,105.11 270.96,105.11 271.19,105.19 271.41,105.27 271.60,105.41 271.79,105.55 271.92,105.75 272.05,105.95 272.11,106.17 272.18,106.40 272.16,106.64 272.15,106.88 272.06,107.10 271.97,107.32 271.82,107.50 271.67,107.68 271.46,107.80 271.26,107.92 271.03,107.97 270.80,108.02 270.56,107.99 270.32,107.97 270.11,107.87 269.90,107.77 269.72,107.60 269.55,107.44 269.44,107.23 269.33,107.02 269.29,106.79 269.26,106.55 269.26,106.55 269.26,106.55 269.38,95.17 269.51,83.78 269.62,75.30 269.74,66.83 269.75,58.38 269.76,49.92 269.63,41.57 269.50,33.22 269.19,25.27 268.89,17.32 268.12,10.96 267.35,4.59 264.17,3.48 261.00,2.38 252.28,2.33 243.56,2.28 234.81,2.23 226.07,2.18 217.33,2.13 208.59,2.08 199.85,2.03 191.10,1.99 182.36,1.94 173.62,1.89 164.88,1.84 156.14,1.79 147.39,1.74 138.65,1.69 129.91,1.68 121.17,1.67 112.43,1.71 103.68,1.75 94.94,1.78 86.21,1.82 77.47,1.86 68.74,1.90 60.03,1.96 51.32,2.01 42.72,2.11 34.11,2.20 25.92,2.47 17.74,2.74 11.18,3.46 4.61,4.19 3.51,7.31 2.40,10.44 2.31,18.97 2.21,27.51 2.11,36.06 2.01,44.61 1.92,53.15 1.82,61.70 1.83,70.22 1.84,78.74 1.99,87.16 2.13,95.59 2.46,103.60 2.78,111.61 3.56,118.03 4.34,124.44 7.51,125.54 10.69,126.64 19.40,126.65 28.11,126.67 36.84,126.68 45.58,126.70 54.31,126.72 63.04,126.74 71.78,126.75 80.51,126.77 89.24,126.79 97.98,126.81 106.71,126.82 115.44,126.84 124.18,126.86 132.91,126.88 141.64,126.85 150.38,126.83 159.11,126.76 167.84,126.69 176.57,126.62 185.30,126.55 194.03,126.47 202.75,126.40 211.45,126.32 220.15,126.23 228.75,126.11 237.35,125.98 245.53,125.69 253.71,125.40 260.26,124.70 266.81,123.99 267.93,121.02 269.05,118.04 269.16,110.13 269.27,102.23 269.38,95.90 269.49,89.58 269.51,89.43 269.53,89.28 269.59,89.13 269.64,88.99 269.73,88.86 269.82,88.74 269.93,88.63 270.05,88.53 270.19,88.46 270.32,88.39 270.47,88.35 270.62,88.32 270.78,88.32 270.93,88.32 271.08,88.36 271.23,88.39 271.37,88.47 271.50,88.54 271.62,88.64 271.73,88.74 271.82,88.87 271.91,89.00 271.96,89.14 272.01,89.29 272.03,89.44 Z" fill="#1d1d1d" stroke="#1d1d1d" stroke-width="2" pointer-events="none"/></g><g fill="#1d1d1d" transform="translate(669.3399999999999, 500.75) rotate(0, 48, 20.5)"><text font-family="&quot;Caveat Brush&quot;" font-size="28px" text-anchor="middle" alignment-baseline="central" text-align="center" y="18.2" x="48">Agent 2</text></g></g><g><g id="26c079bb-8999-4638-3dc0-fd38e96bad85_svg" class="tl-centered-g" transform="translate(936, 448) rotate(0, 135.72, 64.29)"><path d="M 0.11,38.90 Q 0.11,38.90 0.01,32.63 -0.07,26.36 -0.16,18.47 -0.25,10.58 1.61,6.54 3.48,2.50 10.69,1.42 17.90,0.33 26.22,0.15 34.54,-0.02 43.15,-0.02 51.76,-0.02 60.44,0.02 69.13,0.06 77.83,0.11 86.53,0.17 95.24,0.22 103.95,0.28 112.67,0.34 121.38,0.40 130.09,0.41 138.80,0.43 147.51,0.40 156.22,0.37 164.93,0.34 173.65,0.31 182.36,0.28 191.07,0.25 199.78,0.22 208.49,0.19 217.20,0.17 225.92,0.14 234.63,0.11 243.34,0.08 252.07,0.05 260.81,0.03 265.06,1.91 269.31,3.78 270.40,10.81 271.49,17.83 271.62,25.93 271.75,34.02 271.70,42.39 271.64,50.75 271.64,59.19 271.63,67.63 271.70,76.09 271.77,84.55 271.84,93.01 271.91,101.48 271.97,109.96 272.04,118.45 270.16,122.64 268.27,126.83 261.08,127.94 253.88,129.05 245.57,129.21 237.25,129.38 228.66,129.36 220.06,129.34 211.39,129.27 202.72,129.20 194.03,129.12 185.33,129.05 176.64,128.96 167.94,128.88 159.24,128.80 150.54,128.72 141.84,128.68 133.15,128.64 124.45,128.64 115.75,128.65 107.05,128.65 98.35,128.66 89.65,128.66 80.95,128.67 72.25,128.67 63.55,128.67 54.85,128.68 46.15,128.68 37.45,128.69 28.75,128.69 20.03,128.69 11.31,128.69 7.07,126.81 2.82,124.93 1.71,117.95 0.60,110.96 0.44,102.91 0.29,94.86 0.32,86.55 0.34,78.24 0.33,69.85 0.31,61.46 0.21,53.06 0.11,44.65 0.01,33.36 -0.07,22.07 -0.04,21.84 -0.00,21.61 0.10,21.40 0.21,21.19 0.39,21.02 0.56,20.86 0.77,20.76 0.99,20.66 1.22,20.64 1.46,20.61 1.69,20.66 1.92,20.71 2.12,20.83 2.33,20.96 2.48,21.14 2.63,21.32 2.72,21.54 2.81,21.76 2.82,21.99 2.84,22.23 2.77,22.46 2.71,22.69 2.58,22.88 2.44,23.08 2.25,23.22 2.07,23.37 1.84,23.44 1.62,23.52 1.38,23.52 1.14,23.52 0.92,23.44 0.69,23.37 0.51,23.22 0.32,23.08 0.18,22.88 0.05,22.69 -0.00,22.46 -0.07,22.23 -0.05,21.99 -0.04,21.76 0.04,21.54 0.13,21.32 0.28,21.14 0.43,20.96 0.63,20.83 0.84,20.71 1.07,20.66 1.30,20.61 1.54,20.64 1.77,20.66 1.99,20.76 2.20,20.86 2.37,21.02 2.55,21.19 2.66,21.40 2.77,21.60 2.81,21.84 2.84,22.07 2.84,22.07 2.84,22.07 2.76,33.36 2.67,44.65 2.58,53.05 2.49,61.46 2.51,69.84 2.53,78.22 2.69,86.50 2.84,94.79 3.17,102.67 3.50,110.55 4.29,116.86 5.07,123.17 8.24,124.29 11.41,125.41 20.09,125.49 28.77,125.57 37.47,125.65 46.17,125.73 54.86,125.81 63.56,125.89 72.26,125.98 80.96,126.06 89.66,126.14 98.36,126.22 107.06,126.31 115.76,126.39 124.46,126.47 133.15,126.55 141.85,126.59 150.55,126.63 159.25,126.63 167.95,126.62 176.65,126.62 185.34,126.61 194.04,126.60 202.73,126.60 211.39,126.58 220.06,126.56 228.62,126.49 237.18,126.43 245.33,126.19 253.48,125.95 260.01,125.26 266.54,124.56 267.65,121.46 268.76,118.35 268.87,109.91 268.98,101.47 269.10,93.00 269.21,84.54 269.33,76.08 269.44,67.63 269.45,59.19 269.46,50.76 269.33,42.43 269.20,34.09 268.89,26.16 268.59,18.23 267.82,11.88 267.06,5.53 263.88,4.42 260.71,3.31 252.02,3.26 243.33,3.21 234.62,3.15 225.91,3.09 217.20,3.03 208.49,2.97 199.78,2.92 191.07,2.86 182.35,2.80 173.64,2.74 164.93,2.69 156.22,2.63 147.51,2.57 138.80,2.51 130.08,2.50 121.37,2.48 112.66,2.51 103.95,2.54 95.24,2.57 86.53,2.60 77.83,2.63 69.13,2.67 60.45,2.71 51.77,2.75 43.19,2.84 34.62,2.93 26.46,3.18 18.29,3.43 11.76,4.10 5.23,4.78 4.12,7.73 3.02,10.68 2.93,18.52 2.85,26.36 2.75,32.63 2.66,38.90 2.64,39.05 2.63,39.20 2.57,39.35 2.52,39.49 2.43,39.62 2.34,39.74 2.23,39.85 2.11,39.95 1.97,40.02 1.84,40.09 1.69,40.13 1.54,40.17 1.38,40.17 1.23,40.17 1.08,40.13 0.93,40.09 0.80,40.02 0.66,39.95 0.54,39.85 0.43,39.75 0.34,39.62 0.25,39.49 0.20,39.35 0.14,39.20 0.12,39.05 Z" fill="#1d1d1d" stroke="#1d1d1d" stroke-width="2" pointer-events="none"/></g><g fill="#1d1d1d" transform="translate(1016, 496) rotate(0, 48, 20.5)"><text font-family="&quot;Caveat Brush&quot;" font-size="28px" text-anchor="middle" alignment-baseline="central" text-align="center" y="18.2" x="48">Agent 3</text></g></g><g id="66539b53-795d-47b8-2226-ce930e425d1b_svg" class="tl-centered-g" transform="translate(712, 232) rotate(0, 0.5, 100)"><defs><mask id="66539b53-795d-47b8-2226-ce930e425d1b_clip"><rect x="-100" y="-100" width="201" height="400" fill="white"/><rect x="0" y="100" width="0" height="0" rx="4" ry="4" fill="black" opacity="1"/></mask></defs><g pointer-events="none" opacity="1" mask=""><path d="M -1.01,200 Q -1.01,200 -0.98,175.25 -0.95,150.5 -0.93,125.75 -0.91,101 -0.89,76.25 -0.87,51.5 -0.86,26.75 -0.85,2 -0.83,1.86 -0.80,1.72 -0.74,1.60 -0.67,1.48 -0.57,1.38 -0.47,1.29 -0.35,1.23 -0.22,1.17 -0.09,1.16 0.04,1.14 0.18,1.17 0.31,1.20 0.43,1.27 0.55,1.34 0.64,1.45 0.73,1.55 0.78,1.68 0.83,1.81 0.84,1.95 0.84,2.09 0.81,2.22 0.77,2.35 0.69,2.47 0.61,2.58 0.50,2.67 0.39,2.75 0.26,2.79 0.13,2.84 -0.00,2.84 -0.13,2.84 -0.26,2.79 -0.39,2.75 -0.50,2.67 -0.61,2.58 -0.69,2.47 -0.77,2.35 -0.81,2.22 -0.84,2.09 -0.84,1.95 -0.83,1.81 -0.78,1.68 -0.73,1.55 -0.64,1.45 -0.55,1.34 -0.43,1.27 -0.31,1.20 -0.18,1.17 -0.04,1.14 0.09,1.16 0.22,1.17 0.35,1.23 0.47,1.29 0.57,1.38 0.67,1.48 0.74,1.60 0.80,1.72 0.83,1.86 0.85,2.00 0.85,2.00 0.85,2 0.86,26.75 0.87,51.5 0.89,76.25 0.91,101 0.93,125.75 0.95,150.5 0.98,175.25 1.01,200 1.00,200.12 0.98,200.24 0.94,200.35 0.89,200.47 0.83,200.57 0.76,200.67 0.66,200.75 0.57,200.83 0.46,200.89 0.36,200.95 0.24,200.97 0.12,201.00 -0.00,201.00 -0.12,201.00 -0.24,200.97 -0.36,200.95 -0.46,200.89 -0.57,200.83 -0.66,200.75 -0.76,200.67 -0.83,200.57 -0.89,200.47 -0.94,200.35 -0.98,200.24 -1.00,200.12 Z" fill="#1d1d1d" stroke="#1d1d1d" stroke-width="2.11" stroke-dasharray="none" stroke-dashoffset="none" stroke-linecap="round" stroke-linejoin="round" pointer-events="stroke"/><g><path d="M -7.999999999999999,13.85640646055102 L 0,0 7.99,13.85640646055102" fill="none" stroke="#1d1d1d" stroke-width="4.23" stroke-linecap="round" stroke-linejoin="round" pointer-events="none"/></g></g></g><g id="95fe2a62-b4e4-4633-3305-3ac7a375fc26_svg" class="tl-centered-g" transform="translate(752, 224) rotate(0, 100.38, 104)"><defs><mask id="95fe2a62-b4e4-4633-3305-3ac7a375fc26_clip"><rect x="-100" y="-100" width="400.76" height="408" fill="white"/><rect x="100.38" y="104" width="0" height="0" rx="4" ry="4" fill="black" opacity="1"/></mask></defs><g pointer-events="none" opacity="1" mask=""><path d="M 200.12,208.60 Q 200.12,208.60 175.23,182.76 150.34,156.91 125.44,131.07 100.54,105.23 75.63,79.39 50.73,53.55 25.82,27.72 0.91,1.89 0.85,1.80 0.79,1.72 0.76,1.61 0.73,1.51 0.73,1.40 0.74,1.30 0.78,1.20 0.82,1.10 0.88,1.02 0.95,0.94 1.04,0.88 1.13,0.82 1.24,0.80 1.34,0.78 1.45,0.79 1.55,0.80 1.65,0.84 1.75,0.89 1.83,0.96 1.90,1.03 1.96,1.12 2.01,1.22 2.02,1.32 2.04,1.43 2.03,1.53 2.01,1.64 1.96,1.73 1.91,1.83 1.84,1.90 1.76,1.98 1.66,2.02 1.57,2.07 1.46,2.08 1.35,2.09 1.25,2.07 1.15,2.05 1.05,1.99 0.96,1.94 0.89,1.86 0.82,1.78 0.78,1.68 0.74,1.58 0.74,1.48 0.73,1.37 0.76,1.27 0.78,1.16 0.84,1.07 0.90,0.99 0.99,0.92 1.07,0.85 1.17,0.82 1.27,0.78 1.38,0.78 1.48,0.78 1.59,0.82 1.69,0.85 1.77,0.91 1.86,0.98 1.86,0.98 1.86,0.98 26.79,26.79 51.72,52.59 76.66,78.40 101.60,104.20 126.54,130.00 151.48,155.80 176.43,181.59 201.39,207.39 201.45,207.47 201.51,207.56 201.55,207.65 201.60,207.75 201.61,207.85 201.63,207.96 201.62,208.06 201.61,208.17 201.58,208.27 201.55,208.37 201.49,208.46 201.43,208.55 201.36,208.62 201.28,208.69 201.19,208.75 201.10,208.80 201.00,208.83 200.90,208.86 200.79,208.86 200.69,208.87 200.58,208.85 200.48,208.83 200.38,208.78 200.29,208.74 200.21,208.67 Z" fill="#1d1d1d" stroke="#1d1d1d" stroke-width="2.11" stroke-dasharray="none" stroke-dashoffset="none" stroke-linecap="round" stroke-linejoin="round" pointer-events="stroke"/><g><path d="M 3.86,15.52572573790404 L 0,0 15.37,4.4141496483943135" fill="none" stroke="#1d1d1d" stroke-width="4.23" stroke-linecap="round" stroke-linejoin="round" pointer-events="none"/></g></g></g><g id="90948623-a19d-4247-1263-04fa94f0a68d_svg" class="tl-centered-g" transform="translate(507.19000000000005, 224) rotate(0, 84.01, 108.36)"><defs><mask id="90948623-a19d-4247-1263-04fa94f0a68d_clip"><rect x="-100" y="-100" width="368.02" height="416.73" fill="white"/><rect x="84.01" y="108.36" width="0" height="0" rx="4" ry="4" fill="black" opacity="1"/></mask></defs><g pointer-events="none" opacity="1" mask=""><path d="M -0.79,216.11 Q -0.79,216.11 20.07,189.23 40.95,162.36 61.81,135.48 82.68,108.60 103.54,81.71 124.41,54.83 145.26,27.95 166.12,1.06 166.22,0.97 166.32,0.87 166.45,0.82 166.57,0.76 166.71,0.75 166.84,0.73 166.98,0.76 167.11,0.80 167.23,0.87 167.34,0.94 167.43,1.04 167.52,1.15 167.57,1.28 167.61,1.40 167.62,1.54 167.63,1.67 167.59,1.81 167.55,1.94 167.47,2.05 167.40,2.16 167.29,2.24 167.18,2.32 167.05,2.37 166.92,2.41 166.78,2.41 166.65,2.41 166.52,2.36 166.39,2.32 166.28,2.23 166.17,2.15 166.10,2.04 166.02,1.92 165.99,1.79 165.95,1.66 165.96,1.52 165.97,1.39 166.02,1.26 166.07,1.13 166.16,1.03 166.25,0.93 166.37,0.86 166.49,0.79 166.62,0.76 166.75,0.73 166.89,0.75 167.02,0.77 167.15,0.82 167.27,0.88 167.37,0.98 167.47,1.07 167.53,1.19 167.59,1.31 167.61,1.45 167.63,1.58 167.61,1.72 167.59,1.85 167.52,1.97 167.46,2.09 167.46,2.09 167.46,2.09 146.62,28.99 125.78,55.89 104.94,82.80 84.10,109.70 63.27,136.61 42.44,163.52 21.62,190.43 0.79,217.34 0.71,217.43 0.62,217.52 0.52,217.58 0.41,217.64 0.30,217.68 0.18,217.72 0.06,217.72 -0.05,217.73 -0.17,217.71 -0.29,217.69 -0.40,217.64 -0.51,217.59 -0.61,217.52 -0.70,217.44 -0.78,217.35 -0.86,217.25 -0.91,217.14 -0.96,217.03 -0.98,216.91 -1.00,216.79 -0.99,216.67 -0.99,216.55 -0.95,216.43 -0.92,216.32 -0.85,216.21 Z" fill="#1d1d1d" stroke="#1d1d1d" stroke-width="2.11" stroke-dasharray="none" stroke-dashoffset="none" stroke-linecap="round" stroke-linejoin="round" pointer-events="stroke"/><g><path d="M 153.20,6.049422865038239 L 168.02,0 165.85,15.852546879310765" fill="none" stroke="#1d1d1d" stroke-width="4.23" stroke-linecap="round" stroke-linejoin="round" pointer-events="none"/></g></g></g><g id="91d0522d-6e6c-4596-3c9c-264ae569c329_svg" class="tl-centered-g" transform="translate(872, 143.48) rotate(0, 80, 0.5)"><defs><mask id="91d0522d-6e6c-4596-3c9c-264ae569c329_clip"><rect x="-100" y="-100" width="360" height="201" fill="white"/><rect x="80" y="0.26" width="0" height="0" rx="4" ry="4" fill="black" opacity="1"/></mask></defs><g pointer-events="none" opacity="1" mask=""><path d="M -0.00,-0.40 Q -0.00,-0.40 19.74,-0.43 39.49,-0.45 59.24,-0.49 78.99,-0.53 98.74,-0.57 118.49,-0.62 138.24,-0.66 157.99,-0.71 158.11,-0.70 158.22,-0.68 158.33,-0.62 158.43,-0.57 158.51,-0.48 158.59,-0.40 158.64,-0.29 158.69,-0.18 158.71,-0.07 158.72,0.04 158.69,0.15 158.67,0.27 158.61,0.37 158.55,0.47 158.46,0.55 158.37,0.62 158.26,0.67 158.15,0.71 158.04,0.72 157.92,0.72 157.81,0.69 157.69,0.66 157.60,0.60 157.50,0.53 157.43,0.44 157.36,0.34 157.32,0.23 157.28,0.12 157.28,0.00 157.28,-0.10 157.32,-0.21 157.35,-0.33 157.42,-0.42 157.49,-0.51 157.59,-0.58 157.69,-0.65 157.80,-0.68 157.91,-0.71 158.03,-0.70 158.15,-0.70 158.26,-0.65 158.37,-0.61 158.46,-0.54 158.55,-0.46 158.61,-0.36 158.67,-0.26 158.69,-0.14 158.72,-0.03 158.71,0.08 158.69,0.19 158.65,0.30 158.60,0.41 158.52,0.49 158.44,0.58 158.33,0.63 158.23,0.69 158.11,0.71 158.00,0.73 158.00,0.73 158.00,0.73 138.25,0.81 118.50,0.88 98.75,0.97 79.00,1.05 59.25,1.15 39.50,1.24 19.75,1.34 0.00,1.44 -0.10,1.43 -0.21,1.41 -0.32,1.37 -0.42,1.33 -0.51,1.27 -0.61,1.21 -0.68,1.13 -0.75,1.04 -0.81,0.94 -0.86,0.85 -0.88,0.74 -0.91,0.63 -0.91,0.52 -0.91,0.41 -0.89,0.30 -0.86,0.19 -0.81,0.09 -0.76,-0.00 -0.68,-0.08 -0.61,-0.16 -0.52,-0.23 -0.43,-0.29 -0.32,-0.33 -0.22,-0.37 -0.11,-0.38 Z" fill="#1d1d1d" stroke="#1d1d1d" stroke-width="2.11" stroke-dasharray="none" stroke-dashoffset="none" stroke-linecap="round" stroke-linejoin="round" pointer-events="stroke"/><g><path d="M 146.11,-7.954924667168252 L 160,0 146.16,8.04499083350115" fill="none" stroke="#1d1d1d" stroke-width="4.23" stroke-linecap="round" stroke-linejoin="round" pointer-events="none"/></g></g></g><g id="f6bdae57-2308-4c7e-2083-b93bfcf5349d_svg" class="tl-centered-g" transform="translate(303.44000000000005, 144) rotate(0, 124.28, 0.5)"><defs><mask id="f6bdae57-2308-4c7e-2083-b93bfcf5349d_clip"><rect x="-100" y="-100" width="448.56" height="201" fill="white"/><rect x="124.28" y="0.08" width="0" height="0" rx="4" ry="4" fill="black" opacity="1"/></mask></defs><g pointer-events="none" opacity="1" mask=""><path d="M -0.00,-0.76 Q -0.00,-0.76 30.81,-0.74 61.63,-0.73 92.45,-0.73 123.27,-0.72 154.09,-0.72 184.91,-0.73 215.73,-0.74 246.55,-0.74 246.67,-0.72 246.79,-0.70 246.90,-0.65 247.01,-0.59 247.09,-0.50 247.18,-0.41 247.23,-0.30 247.28,-0.19 247.29,-0.07 247.30,0.04 247.28,0.16 247.25,0.27 247.19,0.38 247.13,0.48 247.03,0.56 246.94,0.64 246.83,0.68 246.72,0.73 246.60,0.74 246.47,0.74 246.36,0.71 246.24,0.68 246.14,0.61 246.04,0.54 245.97,0.44 245.89,0.35 245.85,0.23 245.82,0.12 245.82,0.00 245.81,-0.11 245.85,-0.23 245.89,-0.34 245.97,-0.44 246.04,-0.54 246.14,-0.61 246.24,-0.67 246.36,-0.71 246.47,-0.74 246.59,-0.73 246.72,-0.73 246.83,-0.68 246.94,-0.64 247.03,-0.56 247.13,-0.48 247.19,-0.38 247.25,-0.27 247.28,-0.15 247.30,-0.03 247.29,0.08 247.28,0.20 247.23,0.31 247.18,0.42 247.09,0.51 247.01,0.59 246.90,0.65 246.79,0.71 246.68,0.73 246.56,0.75 246.56,0.75 246.56,0.75 215.74,0.78 184.92,0.82 154.10,0.86 123.28,0.90 92.46,0.95 61.64,1.00 30.82,1.06 0.00,1.12 -0.11,1.10 -0.22,1.09 -0.33,1.05 -0.43,1.01 -0.53,0.94 -0.62,0.88 -0.69,0.80 -0.77,0.71 -0.82,0.61 -0.87,0.51 -0.90,0.40 -0.93,0.29 -0.93,0.18 -0.93,0.06 -0.90,-0.04 -0.88,-0.15 -0.82,-0.25 -0.77,-0.35 -0.69,-0.43 -0.62,-0.52 -0.53,-0.58 -0.43,-0.65 -0.33,-0.69 -0.22,-0.73 -0.11,-0.74 Z" fill="#1d1d1d" stroke="#1d1d1d" stroke-width="2.11" stroke-dasharray="none" stroke-dashoffset="none" stroke-linecap="round" stroke-linejoin="round" pointer-events="stroke"/><g><path d="M 234.69,-7.98996349407797 L 248.56,0 234.70,8.010032310531965" fill="none" stroke="#1d1d1d" stroke-width="4.23" stroke-linecap="round" stroke-linejoin="round" pointer-events="none"/></g></g></g><g><g id="ae5e5ca8-1df9-4f03-20ee-8a43262b50a6_svg" class="tl-centered-g" transform="translate(1064, 16) rotate(0, 105.19, 106.62)"><path d="M 121.83,213.18 Q 121.83,213.18 115.62,213.16 109.42,213.14 101.64,213.23 93.86,213.33 85.67,213.42 77.49,213.52 69.20,213.62 60.91,213.72 52.60,213.81 44.28,213.91 35.96,214.01 27.64,214.11 19.29,214.20 10.94,214.29 6.79,212.43 2.63,210.58 1.51,203.56 0.38,196.54 0.19,188.45 0.00,180.36 -0.01,172.00 -0.02,163.63 0.01,155.20 0.04,146.76 0.08,138.30 0.13,129.85 0.18,121.39 0.22,112.93 0.16,104.46 0.10,96.00 0.04,87.54 -0.01,79.08 -0.07,70.61 -0.12,62.15 -0.18,53.69 -0.24,45.23 -0.30,36.76 -0.36,28.30 -0.42,19.82 -0.47,11.33 1.38,7.14 3.25,2.96 10.18,1.81 17.10,0.67 25.08,0.47 33.06,0.27 41.30,0.25 49.55,0.23 57.86,0.25 66.18,0.28 74.51,0.32 82.84,0.35 91.18,0.39 99.52,0.43 107.86,0.36 116.20,0.30 124.53,0.23 132.87,0.16 141.21,0.09 149.55,0.03 157.89,-0.03 166.23,-0.10 174.57,-0.17 182.91,-0.23 191.27,-0.30 199.64,-0.36 203.79,1.50 207.95,3.37 209.07,10.36 210.18,17.36 210.36,25.42 210.54,33.49 210.53,41.82 210.53,50.15 210.48,58.56 210.43,66.97 210.37,75.39 210.31,83.82 210.25,92.25 210.19,100.68 210.23,109.11 210.27,117.54 210.32,125.97 210.36,134.41 210.41,142.84 210.45,151.27 210.49,159.70 210.54,168.14 210.58,176.57 210.63,185.00 210.67,193.46 210.71,201.91 208.84,206.09 206.97,210.26 200.06,211.43 193.14,212.59 185.17,212.82 177.21,213.05 168.98,213.10 160.75,213.15 152.45,213.16 144.15,213.16 135.84,213.15 127.52,213.15 119.20,213.14 110.87,213.13 102.55,213.23 94.23,213.32 83.06,213.44 71.88,213.55 71.69,213.52 71.49,213.49 71.32,213.40 71.15,213.31 71.01,213.16 70.87,213.02 70.79,212.84 70.71,212.67 70.68,212.47 70.66,212.27 70.70,212.08 70.74,211.89 70.84,211.72 70.95,211.55 71.09,211.42 71.24,211.29 71.43,211.22 71.61,211.15 71.81,211.14 72.00,211.12 72.19,211.18 72.38,211.23 72.55,211.34 72.71,211.45 72.83,211.60 72.95,211.76 73.01,211.94 73.08,212.13 73.08,212.33 73.08,212.52 73.02,212.71 72.95,212.90 72.84,213.06 72.72,213.21 72.56,213.32 72.39,213.44 72.20,213.49 72.01,213.54 71.82,213.53 71.62,213.52 71.44,213.45 71.25,213.38 71.10,213.25 70.95,213.13 70.85,212.96 70.75,212.79 70.71,212.60 70.66,212.41 70.68,212.21 70.70,212.01 70.78,211.84 70.87,211.66 71.00,211.51 71.14,211.37 71.31,211.28 71.48,211.18 71.68,211.15 71.87,211.12 71.87,211.12 71.87,211.12 83.04,211.11 94.22,211.11 102.54,211.12 110.86,211.13 119.19,211.03 127.51,210.93 135.82,210.83 144.14,210.73 152.43,210.61 160.72,210.50 168.91,210.34 177.11,210.19 184.90,209.86 192.69,209.54 198.94,208.78 205.19,208.02 206.30,204.92 207.42,201.81 207.48,193.40 207.54,185.00 207.61,176.56 207.67,168.13 207.74,159.70 207.80,151.27 207.86,142.84 207.93,134.40 207.99,125.97 208.06,117.54 208.12,109.11 208.19,100.68 208.14,92.25 208.10,83.82 208.05,75.39 208.00,66.97 207.94,58.57 207.88,50.17 207.78,41.87 207.67,33.57 207.40,25.67 207.13,17.78 206.41,11.45 205.70,5.12 202.62,4.02 199.55,2.91 191.23,2.88 182.92,2.84 174.58,2.80 166.24,2.76 157.90,2.72 149.56,2.68 141.22,2.64 132.88,2.59 124.54,2.55 116.20,2.51 107.86,2.47 99.52,2.43 91.18,2.50 82.85,2.57 74.52,2.64 66.18,2.71 57.88,2.79 49.57,2.88 41.36,3.01 33.15,3.13 25.34,3.43 17.54,3.73 11.28,4.46 5.02,5.20 3.91,8.31 2.80,11.42 2.75,19.86 2.71,28.30 2.66,36.76 2.61,45.22 2.56,53.69 2.52,62.15 2.47,70.61 2.42,79.08 2.37,87.54 2.32,96.00 2.27,104.46 2.22,112.92 2.28,121.38 2.35,129.84 2.41,138.30 2.47,146.75 2.55,155.18 2.62,163.61 2.74,171.94 2.86,180.27 3.15,188.20 3.44,196.12 4.16,202.47 4.89,208.82 7.96,209.91 11.02,211.01 19.32,211.02 27.62,211.02 35.94,211.03 44.27,211.05 52.58,211.06 60.90,211.07 69.19,211.08 77.47,211.09 85.66,211.10 93.85,211.11 101.63,211.12 109.41,211.14 115.61,211.05 121.81,210.96 121.95,210.98 122.08,210.99 122.20,211.04 122.33,211.09 122.44,211.16 122.55,211.24 122.64,211.34 122.73,211.44 122.79,211.56 122.85,211.67 122.89,211.80 122.92,211.93 122.92,212.07 122.92,212.20 122.89,212.33 122.86,212.46 122.80,212.58 122.74,212.70 122.65,212.80 122.56,212.90 122.45,212.97 122.34,213.05 122.22,213.10 122.09,213.15 121.96,213.16 Z" fill="#1d1d1d" stroke="#1d1d1d" stroke-width="2" pointer-events="none"/></g><g fill="#1d1d1d" transform="translate(1096, 112) rotate(0, 73, 25)"><text font-family="&quot;Caveat Brush&quot;" font-size="28px" text-anchor="middle" alignment-baseline="central" text-align="center" y="18.2" x="73">MongoDB</text></g></g></svg>